<?xml version="1.0" standalone="no"?>
<!DOCTYPE svg PUBLIC "-//W3C//DTD SVG 20010904//EN"
 "http://www.w3.org/TR/2001/REC-SVG-20010904/DTD/svg10.dtd">
<svg version="1.0" xmlns="http://www.w3.org/2000/svg"
 width="200.000000pt" height="200.000000pt" viewBox="0 0 200.000000 200.000000"
 preserveAspectRatio="xMidYMid meet">
<metadata>
Created by potrace 1.11, written by Peter Selinger 2001-2013
</metadata>
<g transform="translate(0.000000,200.000000) scale(0.100000,-0.100000)"
fill="#000000" stroke="none">
<path d="M105 1550 c-15 -16 -26 -32 -23 -35 4 -5 281 -5 438 -1 l45 1 0 -238
0 -237 101 0 c89 0 105 3 135 23 18 12 40 36 49 52 8 17 16 32 17 34 2 2 9 -2
18 -9 13 -11 15 -57 15 -325 l0 -312 35 -36 c20 -21 38 -37 40 -37 3 0 5 139
5 308 l0 308 63 -4 c73 -4 115 17 149 74 l21 35 46 -44 c59 -57 79 -67 139
-67 154 0 209 201 76 277 -28 16 -55 23 -97 23 -51 0 -62 4 -88 29 -37 37 -38
78 -4 115 l24 26 220 0 c171 0 220 -3 217 -12 -1 -7 -1 -10 1 -5 3 4 10 4 15
1 7 -4 8 -2 4 4 -5 9 15 12 73 12 45 0 81 4 81 8 0 5 -13 21 -29 36 l-28 27
-286 -3 c-270 -3 -287 -4 -313 -24 -52 -38 -68 -70 -68 -130 1 -67 22 -100 84
-131 31 -16 62 -23 101 -23 50 0 60 -3 78 -26 36 -46 27 -105 -20 -129 -52
-27 -67 -20 -178 89 -58 57 -120 111 -138 120 -23 11 -59 16 -128 16 l-95 0 0
-56 0 -55 -44 38 -43 38 25 33 c20 27 26 46 26 87 1 58 -17 91 -68 129 -26 20
-42 21 -344 24 l-318 3 -29 -31z m671 -61 c33 -31 33 -91 -1 -124 -20 -21 -34
-25 -80 -25 l-55 0 0 91 0 92 56 -6 c39 -4 64 -13 80 -28z m1 -243 c32 -38 31
-90 -3 -121 -22 -20 -37 -25 -80 -25 l-54 0 0 91 0 91 57 -4 c46 -4 61 -10 80
-32z m340 2 c39 -42 31 -108 -17 -133 -39 -20 -62 -19 -94 6 -23 18 -26 27
-26 85 l0 64 58 0 c48 0 62 -4 79 -22z"/>
<path d="M1726 1455 c-9 -26 -7 -32 5 -12 6 10 9 21 6 23 -2 3 -7 -2 -11 -11z"/>
<path d="M1686 1345 c-9 -26 -7 -32 5 -12 6 10 9 21 6 23 -2 3 -7 -2 -11 -11z"/>
<path d="M146 1265 c-9 -26 -7 -32 5 -12 6 10 9 21 6 23 -2 3 -7 -2 -11 -11z"/>
<path d="M1880 1165 c0 -5 5 -17 10 -25 5 -8 10 -10 10 -5 0 6 -5 17 -10 25
-5 8 -10 11 -10 5z"/>
<path d="M380 1145 c0 -5 5 -17 10 -25 5 -8 10 -10 10 -5 0 6 -5 17 -10 25 -5
8 -10 11 -10 5z"/>
<path d="M1596 1095 c-9 -26 -7 -32 5 -12 6 10 9 21 6 23 -2 3 -7 -2 -11 -11z"/>
<path d="M56 1015 c-9 -26 -7 -32 5 -12 6 10 9 21 6 23 -2 3 -7 -2 -11 -11z"/>
<path d="M232 952 c-248 -3 -253 -4 -162 -59 119 -72 264 -65 380 17 32 23 37
36 18 41 -7 2 -113 3 -236 1z"/>
<path d="M1529 939 c-15 -9 31 -45 91 -73 81 -38 192 -37 275 3 55 26 111 71
89 71 -174 4 -448 4 -455 -1z"/>
</g>
</svg>
